<svg width="20" height="20" viewBox="0 0 20 20" fill="none" xmlns="http://www.w3.org/2000/svg">
<path opacity="0.4" d="M9.99269 15.5179L4.58291 18.2201C4.17438 18.4418 3.66478 18.2938 3.43628 17.8869C3.36954 17.759 3.33426 17.6169 3.33337 17.4724V11.424C3.33337 12.0237 3.67149 12.3938 4.56086 12.8084L9.99269 15.5179Z" fill="#ADB3CC"/>
<path fill-rule="evenodd" clip-rule="evenodd" d="M7.41276 1.66666H12.5579C14.8144 1.66666 16.6447 2.55504 16.6667 4.8278V17.4724C16.6658 17.6145 16.6305 17.7543 16.5638 17.8795C16.4567 18.0839 16.2717 18.2356 16.0513 18.2998C15.8309 18.364 15.594 18.3352 15.3951 18.2201L9.99269 15.5179L4.56086 12.8084C3.67149 12.3938 3.33337 12.0237 3.33337 11.424V4.8278C3.33337 2.55504 5.16358 1.66666 7.41276 1.66666ZM6.85414 8.01856H13.1239C13.4852 8.01856 13.7781 7.72357 13.7781 7.35968C13.7781 6.99579 13.4852 6.7008 13.1239 6.7008H6.85414C6.49285 6.7008 6.19997 6.99579 6.19997 7.35968C6.19997 7.72357 6.49285 8.01856 6.85414 8.01856Z" fill="#ADB3CC"/>
</svg>
