<svg width="20" height="20" viewBox="0 0 20 20" fill="none" xmlns="http://www.w3.org/2000/svg">
<path opacity="0.4" d="M13.3962 1.66666H16.2178C17.3864 1.66666 18.3333 2.62153 18.3333 3.79996V6.64543C18.3333 7.82385 17.3864 8.77873 16.2178 8.77873H13.3962C12.2276 8.77873 11.2808 7.82385 11.2808 6.64543V3.79996C11.2808 2.62153 12.2276 1.66666 13.3962 1.66666Z" fill="#42BBFF"/>
<path fill-rule="evenodd" clip-rule="evenodd" d="M3.78206 1.66666H6.6037C7.77226 1.66666 8.71914 2.62153 8.71914 3.79996V6.64543C8.71914 7.82385 7.77226 8.77873 6.6037 8.77873H3.78206C2.61351 8.77873 1.66663 7.82385 1.66663 6.64543V3.79996C1.66663 2.62153 2.61351 1.66666 3.78206 1.66666ZM3.78206 11.2213H6.6037C7.77226 11.2213 8.71914 12.1761 8.71914 13.3546V16.2C8.71914 17.3776 7.77226 18.3333 6.6037 18.3333H3.78206C2.61351 18.3333 1.66663 17.3776 1.66663 16.2V13.3546C1.66663 12.1761 2.61351 11.2213 3.78206 11.2213ZM16.2179 11.2213H13.3962C12.2277 11.2213 11.2808 12.1761 11.2808 13.3546V16.2C11.2808 17.3776 12.2277 18.3333 13.3962 18.3333H16.2179C17.3864 18.3333 18.3333 17.3776 18.3333 16.2V13.3546C18.3333 12.1761 17.3864 11.2213 16.2179 11.2213Z" fill="#42BBFF"/>
</svg>
