<svg width="8" height="8" viewBox="0 0 8 8" fill="none" xmlns="http://www.w3.org/2000/svg">
<path d="M3.246 7.08721C3.20733 7.04954 3.042 6.90731 2.906 6.77482C2.05067 5.99807 0.650667 3.97177 0.223333 2.91121C0.154667 2.75014 0.00933333 2.34293 0 2.12537C0 1.91689 0.048 1.71816 0.145333 1.52852C0.281333 1.29211 0.495333 1.10247 0.748 0.998559C0.923333 0.931665 1.448 0.827752 1.45733 0.827752C2.03133 0.723839 2.964 0.666687 3.99467 0.666687C4.97667 0.666687 5.87133 0.723839 6.454 0.808918C6.46333 0.81866 7.11533 0.922573 7.33867 1.03623C7.74667 1.2447 8 1.65191 8 2.0877V2.12537C7.99 2.40918 7.73667 3.00603 7.72733 3.00603C7.29933 4.00944 5.968 5.98898 5.08333 6.78456C5.08333 6.78456 4.856 7.00863 4.714 7.10604C4.51 7.25802 4.25733 7.33335 4.00467 7.33335C3.72267 7.33335 3.46 7.24827 3.246 7.08721Z" fill="#ADB3CC"/>
</svg>
