<svg width="125" height="58" viewBox="0 0 125 58" fill="none" xmlns="http://www.w3.org/2000/svg">
<path d="M26.5724 23.7597C24.7386 22.407 20.2853 19.9561 17.1418 20.9737C13.2124 22.2456 6.68351 25.9399 3.66088 21.6398C2.69365 19.6048 4.2251 19.3384 5.11175 19.4594C2.93545 18.8135 -0.800506 17.2428 1.66595 16.1284C2.14957 15.8861 2.21001 14.372 5.414 12.7973C5.77672 12.4945 5.83716 9.46619 9.46431 6.86188C12.1242 6.07453 12.4264 8.25488 13.0914 8.13375C13.7564 8.01262 17.6254 7.10414 20.8898 8.13375C21.3734 8.13375 27.7209 -0.224274 29.9577 1.71382C30.5017 2.13777 31.7107 3.28852 32.3153 3.89417C32.4161 2.96551 33.4639 1.27775 36.8492 1.95608C37.9978 2.19835 39.0255 3.40965 39.6301 3.22795C39.4285 3.34908 38.953 3.60346 38.6628 3.65191C38.8441 3.83362 39.6301 4.07588 39.9324 4.74209C40.1741 5.22661 40.4159 5.34774 40.5368 5.34774C40.5973 5.34774 39.2069 5.59 38.9652 5.28718C38.7233 4.98435 39.6905 7.58867 39.2674 9.70846C39.1464 10.3747 40.7182 11.0409 41.4436 12.6156C41.8305 13.3424 42.2094 13.9278 42.3505 14.1297C41.8466 13.7461 40.6941 12.9911 40.1137 13.0395C40.6578 13.2213 41.8667 14.1782 42.3505 16.5524C42.0885 16.0679 41.4194 15.1108 40.839 15.1593C41.5444 15.7045 42.6285 18.0544 41.3228 23.0933C41.0809 24.0625 39.2069 26.3034 39.1464 27.757C39.086 29.2105 42.8341 30.8457 43.6199 31.8148C44.4057 32.7839 49.4234 35.3276 51.781 32.7839C54.1387 30.2402 57.4635 20.3074 61.1511 20.9737C64.8388 21.6398 70.9445 24.1836 72.9997 19.4594C75.0551 14.7354 88.9592 2.13777 98.4502 12.0705C107.941 22.0032 119.79 33.1473 121.845 38.4165C123.901 43.6857 124.384 45.6844 121.845 51.8619C121.301 53.3156 120.032 54.6481 123.054 56.8889" stroke="#42BBFF" stroke-width="1.5" stroke-linecap="round"/>
</svg>
